<?xml version="1.0" encoding="UTF-8" standalone="no"?>
<!-- Generator: Adobe Illustrator 16.0.0, SVG Export Plug-In . SVG Version: 6.00 Build 0)  -->

<svg
   version="1.1"
   id="Layer_1"
   x="0px"
   y="0px"
   width="256"
   height="64"
   viewBox="0 0 256 64"
   enable-background="new 0 0 280 280"
   xml:space="preserve"
   sodipodi:docname="weather.svg"
   inkscape:version="1.2.2 (b0a8486541, 2022-12-01)"
   inkscape:export-filename="../../ch4.png"
   inkscape:export-xdpi="96"
   inkscape:export-ydpi="96"
   xmlns:inkscape="http://www.inkscape.org/namespaces/inkscape"
   xmlns:sodipodi="http://sodipodi.sourceforge.net/DTD/sodipodi-0.dtd"
   xmlns="http://www.w3.org/2000/svg"
   xmlns:svg="http://www.w3.org/2000/svg"><defs
   id="defs55" /><sodipodi:namedview
   id="namedview53"
   pagecolor="#ffffff"
   bordercolor="#000000"
   borderopacity="0.25"
   inkscape:showpageshadow="2"
   inkscape:pageopacity="0"
   inkscape:pagecheckerboard="0"
   inkscape:deskcolor="#d1d1d1"
   showgrid="false"
   inkscape:zoom="10.754033"
   inkscape:cx="42.077236"
   inkscape:cy="35.800521"
   inkscape:window-width="1600"
   inkscape:window-height="820"
   inkscape:window-x="0"
   inkscape:window-y="0"
   inkscape:window-maximized="1"
   inkscape:current-layer="g50" />

<g
   id="g50">
	
	
	
	
	
	
	
	
	
	
	
	
	
	
	
	
	
	
	
	
	
	
	
<rect
   style="opacity:0.99;fill:#f9f9f9;fill-opacity:1;stroke-width:2.26772;stroke-linejoin:bevel;stroke-opacity:0.992157"
   id="rect1971"
   width="45.79364"
   height="36.938259"
   x="9.1795464"
   y="17.356554" /><path
   style="fill:#0c75bc;fill-opacity:1;stroke-width:0.907774"
   d="M 8.5461172,32.131667 V 7.3144519 H 32.63078 56.715445 V 32.131667 56.948882 H 32.63078 8.5461172 Z m 8.9113268,19.883496 c 0.626274,-0.370984 0.628536,-0.388104 0.132428,-1.001984 -0.335289,-0.414887 -0.446818,-0.446713 -0.869703,-0.248174 -0.266799,0.12526 -0.776769,0.227746 -1.133268,0.227746 -1.331432,0 -2.069304,-1.868345 -1.646063,-4.167961 0.307544,-1.670998 1.09131,-2.236177 2.456989,-1.771752 0.628084,0.21359 0.712575,0.194068 1.036042,-0.239372 0.484986,-0.649871 0.45681,-0.748645 -0.307422,-1.077673 -1.692858,-0.728835 -3.634567,-0.05862 -4.630445,1.598278 -0.524804,0.873148 -0.578031,1.118538 -0.578031,2.664845 0,1.494218 0.06403,1.815367 0.521967,2.61803 0.287081,0.503188 0.740841,1.062664 1.008358,1.243278 1.075907,0.726401 2.923703,0.797721 4.009148,0.154739 z m 10.90336,0.248312 c 0.403306,-0.29108 0.468439,-0.29108 0.780584,0 0.474208,0.442207 0.731782,0.398165 1.105125,-0.188962 0.242522,-0.381395 0.26742,-0.56288 0.10078,-0.734588 -0.138203,-0.142408 -0.221317,-1.001756 -0.221317,-2.288262 0,-2.012358 -0.01308,-2.07369 -0.563212,-2.640552 -0.496773,-0.511883 -0.695646,-0.579216 -1.685925,-0.570804 -1.110406,0.0094 -2.373907,0.463867 -2.511963,0.903463 -0.03767,0.119963 0.09126,0.421413 0.28652,0.669884 0.345254,0.439339 0.372281,0.442571 0.982514,0.117408 0.842829,-0.449099 1.643174,-0.344911 1.721764,0.224142 0.05061,0.366442 -0.0562,0.454727 -0.67437,0.557416 -1.422028,0.236231 -1.638938,0.318154 -2.099838,0.793071 -0.854285,0.880269 -0.517475,2.827515 0.567072,3.278495 0.670443,0.278788 1.739567,0.220451 2.212266,-0.120711 z M 26.94911,50.801713 c -0.19309,-0.626875 0.222665,-1.198727 0.871517,-1.198727 0.520978,0 0.571252,0.05929 0.571252,0.673642 0,0.431122 -0.109721,0.717024 -0.304774,0.794151 -0.572222,0.226261 -1.01788,0.12089 -1.137995,-0.269066 z m 21.484535,1.281226 c 0.63076,-0.336101 0.69997,-0.605454 0.29648,-1.153935 -0.24714,-0.335955 -0.30742,-0.339469 -0.85135,-0.04964 -1.09724,0.584663 -2.14593,0.188428 -2.14593,-0.810809 0,-0.45392 0.0434,-0.465574 1.73409,-0.465574 h 1.7341 l -10e-4,-0.645247 c -0.003,-1.965889 -0.94527,-3.126968 -2.53695,-3.126968 -0.57044,0 -1.19823,0.140714 -1.53073,0.343103 -1.094797,0.666383 -1.664188,2.881181 -1.120697,4.359242 0.661824,1.799876 2.647037,2.495643 4.422067,1.549823 z m -2.7008,-4.160539 c 0,-0.453187 0.46537,-0.900403 0.93695,-0.900403 0.32129,0 0.79714,0.60105 0.79714,1.006869 0,0.321444 -0.13915,0.382894 -0.86705,0.382894 -0.7931,0 -0.86704,-0.04174 -0.86704,-0.48936 z m 7.09027,4.356344 c 0.1635,-0.136132 -0.2324,-1.087456 -0.45256,-1.087456 -0.2035,0 -0.26925,-0.822115 -0.3163,-3.954666 -0.0327,-2.175065 -0.11568,-4.012447 -0.18446,-4.083072 -0.0688,-0.07062 -0.46832,-0.03316 -0.88785,0.08324 l -0.76279,0.211647 0.0793,3.821792 c 0.0436,2.101984 0.12101,4.028434 0.17202,4.280994 0.11216,0.555253 1.12703,1.053362 1.81343,0.890046 0.26493,-0.06304 0.50759,-0.136175 0.53924,-0.162525 z M 20.492111,50.110589 c 0,-2.122679 0.02813,-2.292231 0.428228,-2.580992 0.551989,-0.398387 1.232288,-0.395935 1.381593,0.005 0.06432,0.172723 0.116952,1.339306 0.116952,2.592404 v 2.278362 l 0.818877,-0.06105 0.818878,-0.06105 -0.0058,-2.680261 c -0.0066,-3.055593 -0.13343,-3.452011 -1.210848,-3.784632 -0.59368,-0.183281 -0.865148,-0.166188 -1.465466,0.09227 -0.405245,0.174472 -0.769571,0.317223 -0.809616,0.317223 -0.04005,0 -0.07281,-0.714736 -0.07281,-1.588302 0,-0.873566 -0.06503,-1.587804 -0.144509,-1.587194 -0.07948,6.46e-4 -0.469652,0.09415 -0.867048,0.207868 L 18.758002,43.467 v 4.325406 c 0,2.378975 0.0578,4.384971 0.128453,4.457766 0.07065,0.0728 0.460818,0.132359 0.867046,0.132359 h 0.738598 z m 12.7167,-0.08644 v -2.358367 l 0.566402,-0.241746 c 0.311522,-0.132963 0.658342,-0.183201 0.770709,-0.111639 0.126245,0.08039 0.204309,1.073871 0.204309,2.600113 v 2.470003 h 0.881262 0.881262 l -0.06239,-2.896794 c -0.05959,-2.767142 -0.08274,-2.91376 -0.517251,-3.275871 -0.532438,-0.443722 -1.6408,-0.488504 -2.331891,-0.09422 -0.40675,0.232064 -0.504504,0.228692 -0.683521,-0.02358 -0.155652,-0.219339 -0.395573,-0.258276 -0.941359,-0.152772 -0.690962,0.133566 -0.725931,0.175289 -0.617052,0.736237 0.06348,0.327056 0.11542,1.744925 0.11542,3.150819 v 2.556173 h 0.867048 0.867047 z m 6.316055,-0.04461 c 0.05303,-2.260693 0.06332,-2.308064 0.551427,-2.537223 0.891461,-0.418531 1.03229,-0.06472 1.03229,2.59347 v 2.36956 l 0.818881,-0.06105 0.818879,-0.06105 0.05924,-1.985377 c 0.108088,-3.622732 -0.222782,-4.467099 -1.75046,-4.467099 -0.453299,0 -1.011807,0.135418 -1.241135,0.30093 -0.37581,0.271234 -0.434535,0.26856 -0.595104,-0.02708 C 39.078786,45.846658 38.886,45.806519 38.316202,45.916667 l -0.724539,0.140055 0.120705,0.907425 c 0.06639,0.499081 0.120705,1.927523 0.120705,3.174313 v 2.266888 l 0.818879,-0.06105 0.818879,-0.06105 z M 32.867965,39.634005 c -0.121614,-0.249835 -0.246409,-1.377877 -0.27732,-2.506756 -0.05396,-1.970513 -0.0778,-2.07164 -0.59681,-2.531357 -0.686149,-0.607761 -2.165958,-0.646117 -3.361108,-0.08712 -0.896938,0.419518 -0.964497,0.584467 -0.523453,1.278058 l 0.295425,0.464589 0.708703,-0.372305 c 0.389784,-0.20477 0.846433,-0.372306 1.014778,-0.372306 0.407196,0 0.768503,0.392033 0.768503,0.833857 0,0.283586 -0.156531,0.357369 -0.758163,0.357369 -1.633459,0 -2.520724,0.767309 -2.511222,2.171717 0.0066,0.968248 0.224563,1.397887 0.896423,1.766607 0.591331,0.324524 1.917653,0.287352 2.444744,-0.06852 0.406551,-0.274483 0.473366,-0.265567 0.800409,0.106804 l 0.356833,0.406286 0.481687,-0.496338 c 0.412673,-0.425227 0.450009,-0.561423 0.260571,-0.950589 z m -3.175513,-0.172344 c -0.776425,-0.465983 -0.209135,-1.572399 0.80621,-1.572399 0.32566,0 0.398021,0.12506 0.398021,0.687897 0,0.476908 -0.114308,0.750934 -0.372688,0.89342 -0.443547,0.244601 -0.408501,0.244976 -0.831543,-0.0089 z M 15.58095,40.420617 c 0.05818,-0.24569 0.303529,-1.504711 0.545208,-2.797825 l 0.439417,-2.351116 0.530508,2.648922 c 0.291779,1.456908 0.599888,2.721659 0.684686,2.81056 0.0848,0.0889 0.531423,0.13357 0.992497,0.09927 l 0.838316,-0.06237 1.009422,-4.268563 c 0.555183,-2.347708 1.013416,-4.335567 1.018296,-4.417462 0.0049,-0.0819 -0.410175,-0.148904 -0.922347,-0.148904 h -0.931224 l -0.414411,2.035012 c -0.227928,1.119255 -0.475944,2.437049 -0.551153,2.92843 l -0.136742,0.89342 -0.239757,-1.44486 c -0.131864,-0.794674 -0.383901,-2.112468 -0.560075,-2.928432 l -0.320321,-1.48357 h -0.934991 c -1.080115,0 -1.029849,-0.09924 -1.661252,3.279768 -0.193366,1.034805 -0.399508,1.881633 -0.458093,1.881837 -0.05859,1.99e-4 -0.303998,-1.055751 -0.545363,-2.34657 -0.241363,-1.290819 -0.505287,-2.45772 -0.586494,-2.593111 -0.09179,-0.15303 -0.472188,-0.222801 -1.005445,-0.184411 l -0.857799,0.06176 0.891087,3.871485 c 0.490099,2.129317 0.951178,4.117176 1.024618,4.417464 0.123209,0.50377 0.207442,0.545978 1.089576,0.545978 0.831658,0 0.969808,-0.05812 1.061836,-0.44671 z m 10.438545,0.03164 0.832116,-0.415072 -0.323652,-0.564565 c -0.308676,-0.538443 -0.348378,-0.55139 -0.858055,-0.279811 -1.049844,0.559411 -2.287635,0.159713 -2.287635,-0.738703 0,-0.328914 0.177009,-0.366304 1.734097,-0.366304 h 1.734095 v -0.899796 c 0,-1.864642 -1.021005,-3.069472 -2.601143,-3.069472 -1.729124,0 -2.941855,1.639794 -2.735605,3.698945 0.130969,1.307584 0.56735,2.09041 1.463977,2.626235 0.888156,0.530764 1.988686,0.533854 3.041805,0.0085 z m -2.637226,-4.140036 c 0,-0.212201 0.183365,-0.518155 0.407474,-0.679905 0.617987,-0.446019 1.317005,-0.0667 1.323674,0.718282 0.0024,0.279874 -0.165667,0.347441 -0.864099,0.347441 -0.730163,0 -0.867049,-0.06091 -0.867049,-0.385818 z M 36.639202,40.7394 c 0.3428,-0.09461 0.430562,-0.240936 0.385355,-0.642534 -0.04798,-0.42622 -0.171499,-0.531255 -0.684738,-0.582245 l -0.626202,-0.06221 v -1.972799 -1.972796 h 0.486461 c 0.344897,0 0.541147,-0.148202 0.674373,-0.50927 0.290097,-0.786218 0.23801,-0.880495 -0.486462,-0.880495 -0.670804,0 -0.674372,-0.0047 -0.674372,-0.893419 0,-0.985704 0.01226,-0.977415 -1.011555,-0.684444 -0.656697,0.187921 -0.72254,0.269238 -0.72254,0.892313 0,0.47702 -0.08792,0.68555 -0.289018,0.68555 -0.201852,0 -0.289015,0.20957 -0.289015,0.694883 0,0.485314 0.08716,0.694882 0.289015,0.694882 0.23908,0 0.289018,0.370798 0.289018,2.145967 0,1.418514 0.08164,2.251419 0.240846,2.457039 0.52519,0.67832 1.408852,0.908322 2.418834,0.629581 z m 11.730863,-0.287143 0.83212,-0.415072 -0.32365,-0.564565 c -0.30868,-0.538443 -0.34838,-0.55139 -0.85806,-0.279811 -1.04984,0.559411 -2.28763,0.159713 -2.28763,-0.738703 0,-0.328914 0.177,-0.366304 1.73409,-0.366304 h 1.7341 v -0.899796 c 0,-2.034165 -1.05515,-3.152123 -2.84626,-3.015677 -1.233126,0.09394 -2.059227,0.795088 -2.379878,2.019909 -0.262445,1.002484 -0.102318,2.505469 0.352411,3.307754 0.732671,1.292669 2.517507,1.713085 4.042757,0.952265 z m -2.63722,-4.140036 c 0,-0.212201 0.19106,-0.523716 0.42458,-0.692257 0.36122,-0.260698 0.48344,-0.26639 0.81888,-0.03814 0.21686,0.147564 0.422,0.459079 0.45586,0.692255 0.0552,0.380322 -0.029,0.423958 -0.81887,0.423958 -0.74344,0 -0.88045,-0.06004 -0.88045,-0.385818 z m -6.16568,2.084641 c 0,-2.122676 0.02813,-2.292228 0.428226,-2.580989 1.144022,-0.825674 1.498549,-0.167702 1.498549,2.781196 v 2.071721 h 0.770709 0.770709 v -2.788551 c 0,-2.723701 -0.0114,-2.800318 -0.490909,-3.294394 -0.419084,-0.43183 -0.62347,-0.493759 -1.396913,-0.423268 -0.4983,0.04542 -1.053947,0.151153 -1.234768,0.234972 -0.292179,0.135436 -0.335067,-0.02083 -0.385355,-1.404183 -0.06142,-1.689564 -0.0064,-1.630688 -1.260821,-1.348671 l -0.433524,0.09746 v 4.463317 4.463316 h 0.867048 0.867049 z m 12.33135,0.102194 c 0,-2.364917 0.1655,-2.79371 1.07826,-2.79371 0.46346,0 0.84851,-0.591482 0.84851,-1.303418 0,-0.378932 -0.96737,-0.374541 -1.45642,0.0066 -0.4883,0.380565 -0.66303,0.376409 -0.66303,-0.01579 0,-0.262032 -0.13071,-0.294744 -0.72254,-0.180832 -0.39739,0.07649 -0.73762,0.154087 -0.75605,0.172442 -0.0184,0.01834 0.0163,1.439859 0.0772,3.158897 l 0.1107,3.125528 h 0.74169 0.74168 z m -22.7474,-9.494665 c 0.782758,-0.409898 0.881409,-0.627761 0.516874,-1.141454 -0.234173,-0.329989 -0.339264,-0.348912 -0.782374,-0.140876 -0.66517,0.312289 -1.742715,0.308031 -1.98798,-0.0079 -0.105979,-0.136496 -0.252493,-0.449193 -0.325591,-0.694884 -0.131498,-0.441974 -0.113106,-0.446704 1.737471,-0.446704 h 1.870375 l -0.108735,-1.085558 c -0.133512,-1.332953 -0.600235,-2.187791 -1.410912,-2.584183 -1.354357,-0.66224 -2.912357,-0.10213 -3.591749,1.291245 -0.440175,0.902766 -0.440175,2.662998 0,3.565767 0.713777,1.463893 2.578305,2.03226 4.082621,1.244508 z m -2.553712,-4.168985 c 0.343323,-0.992373 1.291026,-1.189701 1.606568,-0.334518 0.10335,0.280098 0.187908,0.548128 0.187908,0.595616 0,0.04749 -0.430803,0.08634 -0.957337,0.08634 -0.829092,0 -0.941239,-0.04654 -0.837139,-0.347442 z m -11.114901,0.744518 v -3.573682 h 0.94277 c 1.000056,0 1.176679,-0.16634 1.176679,-1.10819 v -0.48011 h -2.986498 -2.986499 v 0.79415 0.79415 h 0.963387 0.963388 v 3.573682 3.573679 h 0.963385 0.963388 z m 4.816933,1.210645 v -2.363031 l 0.606555,-0.217876 c 1.012264,-0.36361 1.127539,-0.09924 1.127539,2.585796 v 2.358145 h 0.881612 0.881611 l -0.06274,-2.7972 c -0.06245,-2.784752 -0.06514,-2.79933 -0.603338,-3.275871 -0.619338,-0.54839 -1.60023,-0.6309 -2.407288,-0.20249 l -0.520295,0.27618 -0.03486,-1.48678 c -0.01918,-0.81773 -0.07835,-1.5316 -0.131523,-1.58639 -0.05317,-0.0548 -0.449332,-0.0382 -0.880366,0.0368 l -0.78369,0.13643 v 4.449651 4.44965 h 0.963385 0.963388 z"
   id="path318" /></g>
</svg>
