<?xml version="1.0" encoding="UTF-8" standalone="no"?>
<!-- Generator: Adobe Illustrator 16.0.0, SVG Export Plug-In . SVG Version: 6.00 Build 0)  -->

<svg
   version="1.1"
   id="Layer_1"
   x="0px"
   y="0px"
   width="256"
   height="64"
   viewBox="0 0 256 64"
   enable-background="new 0 0 280 280"
   xml:space="preserve"
   sodipodi:docname="ch3.svg"
   inkscape:version="1.2.2 (b0a8486541, 2022-12-01)"
   inkscape:export-filename="../../../../../../Plocha/ch3.png"
   inkscape:export-xdpi="96"
   inkscape:export-ydpi="96"
   xmlns:inkscape="http://www.inkscape.org/namespaces/inkscape"
   xmlns:sodipodi="http://sodipodi.sourceforge.net/DTD/sodipodi-0.dtd"
   xmlns="http://www.w3.org/2000/svg"
   xmlns:svg="http://www.w3.org/2000/svg"><defs
   id="defs5011" /><sodipodi:namedview
   id="namedview5009"
   pagecolor="#000000"
   bordercolor="#000000"
   borderopacity="0.25"
   inkscape:showpageshadow="2"
   inkscape:pageopacity="0"
   inkscape:pagecheckerboard="0"
   inkscape:deskcolor="#d1d1d1"
   showgrid="false"
   inkscape:zoom="0.73839285"
   inkscape:cx="100.21766"
   inkscape:cy="349.4075"
   inkscape:window-width="1600"
   inkscape:window-height="828"
   inkscape:window-x="0"
   inkscape:window-y="0"
   inkscape:window-maximized="1"
   inkscape:current-layer="Layer_1"
   inkscape:pageshadow="2"
   showguides="false" />


<path
   style="fill:#ffffff;stroke-width:0.376065"
   d="M 7.8495133,58.581583 C 7.812946,58.485401 7.7991853,47.20074 7.8189267,33.504544 l 0.035901,-24.9021493 7.4496603,-0.036201 7.449664,-0.036201 v 0.910575 0.9105753 H 16.248813 9.7434727 v 23.223354 23.223368 h 6.5053403 6.505341 v 0.979296 0.979296 h -7.419078 c -5.806538,0 -7.4335305,-0.03798 -7.4855652,-0.174874 z M 85.70905,57.778386 v -0.980529 h 6.50534 6.50534 V 33.574497 10.351141 H 92.21439 85.70905 V 9.4405664 8.5299914 l 7.449659,0.036201 7.449671,0.036201 V 33.644449 58.686504 l -7.449671,0.03623 -7.449659,0.03623 z m -16.428649,-6.17067 c -1.245454,-0.254622 -2.687263,-1.026992 -3.564067,-1.909263 -3.189422,-3.209277 -2.396228,-8.94687 1.521463,-11.005559 1.745287,-0.917114 3.60421,-1.134269 5.518571,-0.644659 3.267872,0.835776 5.146519,3.288159 5.146519,6.718247 0,3.993749 -2.673653,6.740436 -6.743415,6.927596 -0.654029,0.03007 -1.499614,-0.0087 -1.879071,-0.08636 z m 2.606662,-1.822085 c 2.035956,-0.431536 3.436021,-1.968803 3.738528,-4.104908 0.34448,-2.432476 -0.661173,-4.610737 -2.546151,-5.515008 -2.905812,-1.393997 -6.081254,0.03099 -6.896892,3.094885 -0.651619,2.447777 0.364104,5.062089 2.359622,6.073296 1.12784,0.571516 2.136859,0.70779 3.344893,0.451735 z M 15.479368,44.766482 v -6.71519 h 1.156678 1.156679 l 1.456693,1.923615 c 4.109724,5.427071 5.791186,7.589565 5.901296,7.589565 0.0669,0 0.121637,-2.140462 0.121637,-4.75659 v -4.75659 h 1.119199 1.119197 v 6.493895 c 0,3.571643 -0.03821,6.593476 -0.08492,6.715189 -0.06754,0.176007 -0.303751,0.219837 -1.154171,0.21419 l -1.069256,-0.0075 -3.637395,-4.883001 c -2.000567,-2.685647 -3.716088,-4.885875 -3.812266,-4.88939 -0.136691,-0.005 -0.174877,1.062768 -0.174877,4.890098 v 4.896495 h -1.049249 -1.049246 z m 14.689474,6.665944 c 0,-0.02707 1.042777,-2.623975 2.31728,-5.770862 1.274503,-3.146895 2.486126,-6.146572 2.692497,-6.665952 l 0.375213,-0.94432 h 1.470098 1.470101 l 0.374319,0.94432 c 0.205877,0.51938 1.417501,3.518974 2.692501,6.665752 1.274991,3.146787 2.318169,5.743674 2.318169,5.770862 0,0.02716 -0.550857,0.04931 -1.224123,0.04906 L 41.430774,51.481013 40.923728,50.18728 40.41668,48.893556 h -3.39275 -3.392747 l -0.507049,1.293724 -0.507045,1.293733 -1.224125,2.75e-4 c -0.673266,1.42e-4 -1.224122,-0.02182 -1.224122,-0.0489 z m 9.513182,-4.607397 c 0,-0.09892 -0.336891,-1.027508 -0.748657,-2.063528 -0.411759,-1.036013 -0.98324,-2.497481 -1.269959,-3.247693 -0.286715,-0.750213 -0.574788,-1.364019 -0.640168,-1.364019 -0.06538,0 -0.318057,0.519381 -0.561508,1.154169 -0.243451,0.634797 -0.814621,2.110383 -1.269266,3.279079 -0.454646,1.168696 -0.82663,2.191706 -0.82663,2.27337 0,0.09948 0.876988,0.148468 2.658094,0.148468 2.072439,0 2.658094,-0.03965 2.658094,-0.179846 z m 8.25409,-1.149204 v -5.805838 h -2.238396 -2.238395 v -0.909352 -0.909343 h 5.595985 5.595993 v 0.909343 0.909352 h -2.238396 -2.238396 v 5.805838 5.805846 h -1.119201 -1.119194 z m 9.932882,-0.909343 v -6.71519 h 1.049245 1.049249 v 6.71519 6.715189 h -1.049249 -1.049245 z m 23.22336,-0.0058 v -6.720637 l 1.21161,0.0404 1.211603,0.0404 3.549445,4.686645 c 1.952186,2.577653 3.610384,4.70762 3.684876,4.733275 0.0856,0.02949 0.135458,-1.708401 0.135458,-4.721622 v -4.768251 h 1.119192 1.119201 v 6.71519 6.715189 h -1.098943 -1.098951 l -3.687875,-4.896495 c -2.028328,-2.693069 -3.737222,-4.896495 -3.797546,-4.896495 -0.06031,0 -0.109676,2.203426 -0.109676,4.896495 v 4.896495 h -1.119193 -1.119201 v -6.72067 z M 83.260805,33.062096 C 82.722191,32.94693 81.822652,32.661888 81.26184,32.428657 80.166154,31.972999 78.572227,30.888199 78.5772,30.601533 c 0.0033,-0.211932 2.048319,-3.093367 2.242642,-3.160478 0.07555,-0.02608 0.359309,0.147521 0.630665,0.38577 1.234417,1.083841 3.318672,1.758104 5.123647,1.657531 0.900689,-0.05014 1.155844,-0.121588 1.573877,-0.440432 0.40269,-0.307148 0.498915,-0.474008 0.498915,-0.865129 0,-0.780449 -0.35841,-0.937877 -4.127043,-1.812757 -2.820297,-0.654722 -4.329194,-1.6165 -5.122929,-3.265365 -0.481039,-0.999292 -0.461731,-2.884855 0.04057,-3.96074 0.754286,-1.615641 2.137054,-2.690365 4.111097,-3.195239 2.561712,-0.655176 6.083485,-0.09373 8.176126,1.303456 1.21919,0.814016 1.200932,0.689203 0.277112,1.893844 -0.452027,0.589431 -0.998329,1.281275 -1.21401,1.537429 l -0.392153,0.465745 -0.821864,-0.495114 c -1.320438,-0.795464 -2.474199,-1.125099 -3.958232,-1.130876 -1.168456,-0.0045 -1.314758,0.02519 -1.643831,0.334169 -0.629124,0.59071 -0.41705,1.372246 0.464921,1.713293 0.199656,0.0772 1.169423,0.326449 2.155049,0.553885 3.918949,0.904307 5.484704,1.800306 6.294607,3.602078 0.42134,0.937322 0.408671,2.862164 -0.02616,3.968821 -0.387464,0.986226 -1.423468,2.151482 -2.371669,2.667555 -1.645953,0.895841 -4.86291,1.208787 -7.227774,0.703117 z M 15.479368,24.481005 v -8.533881 h 2.29522 2.295226 l 0.52618,0.734475 c 0.289402,0.403963 1.821961,2.488309 3.405692,4.631883 l 2.879511,3.897416 0.03686,-4.631889 0.03686,-4.631885 h 2.236511 2.236509 v 8.533881 8.533887 h -2.15851 -2.158506 L 24.68771,29.716563 c -1.332762,-1.81408 -2.910462,-3.970071 -3.505996,-4.791089 -0.595536,-0.821017 -1.146392,-1.513959 -1.224125,-1.53987 -0.09336,-0.03114 -0.141331,1.595139 -0.141331,4.791092 v 4.838196 h -2.168445 -2.168446 z m 20.425363,0 v -8.533881 h 6.505339 6.505344 v 1.886627 1.886623 l -4.301921,0.03702 -4.301917,0.03698 -0.04022,1.294072 -0.04022,1.294072 h 4.190585 c 2.61911,0 4.20807,0.05154 4.237218,0.137454 0.02563,0.0756 0.02738,0.956968 0.0038,1.958599 l -0.04275,1.82114 H 44.430837 40.24162 v 1.396976 1.396974 l 4.301916,0.03698 4.301918,0.03698 0.03892,1.923615 0.03892,1.923624 h -6.50929 -6.509289 z m 21.490988,8.289061 c -0.03983,-0.134649 -1.208745,-3.941356 -2.597572,-8.459342 -1.38883,-4.517983 -2.525143,-8.248059 -2.525143,-8.289058 0,-0.041 1.028178,-0.07454 2.28484,-0.07454 h 2.284838 l 1.088362,4.022117 c 0.5986,2.212165 1.186427,4.399849 1.306281,4.861516 0.119858,0.461671 0.258152,0.887138 0.307321,0.945481 0.04917,0.05834 0.196298,-0.256427 0.326948,-0.699501 0.130654,-0.443067 0.791156,-2.662751 1.467786,-4.932622 l 1.230239,-4.127041 1.905975,-0.03885 c 1.725506,-0.03518 1.912835,-0.01531 1.978443,0.209848 0.03986,0.136786 0.584505,1.97996 1.210317,4.095946 0.625821,2.115982 1.23929,4.193495 1.363266,4.616693 0.123983,0.423194 0.267888,0.820504 0.319791,0.882905 0.0519,0.0624 0.220731,-0.378281 0.375171,-0.9793 0.154444,-0.601014 0.673921,-2.540717 1.154397,-4.310451 0.48048,-1.769727 0.945198,-3.50099 1.032718,-3.847239 l 0.159123,-0.629551 2.2897,-0.03852 c 1.808892,-0.03042 2.276232,-0.0012 2.225553,0.1399 -0.0353,0.09813 -1.219019,3.939971 -2.630519,8.537427 L 71.387187,33.01489 H 69.479031 67.57088 l -1.30165,-4.301914 c -0.715903,-2.366052 -1.401274,-4.663906 -1.523048,-5.106341 -0.12177,-0.442434 -0.261131,-0.804425 -0.309698,-0.804425 -0.04856,0 -0.774917,2.297708 -1.614123,5.106019 l -1.525822,5.10602 -1.914193,2.74e-4 c -1.702345,2.84e-4 -1.922211,-0.02682 -1.986627,-0.244501 z"
   id="path297" /></svg>
