<?xml version="1.0" encoding="UTF-8" standalone="no"?>
<!-- Generator: Adobe Illustrator 16.0.0, SVG Export Plug-In . SVG Version: 6.00 Build 0)  -->

<svg
   version="1.1"
   id="Layer_1"
   x="0px"
   y="0px"
   width="256"
   height="64"
   viewBox="0 0 256 64"
   enable-background="new 0 0 280 280"
   xml:space="preserve"
   sodipodi:docname="ch5.svg"
   inkscape:version="1.2.2 (b0a8486541, 2022-12-01)"
   inkscape:export-filename="../../../../../../Plocha/ch5.png"
   inkscape:export-xdpi="96"
   inkscape:export-ydpi="96"
   xmlns:inkscape="http://www.inkscape.org/namespaces/inkscape"
   xmlns:sodipodi="http://sodipodi.sourceforge.net/DTD/sodipodi-0.dtd"
   xmlns="http://www.w3.org/2000/svg"
   xmlns:svg="http://www.w3.org/2000/svg"><defs
   id="defs216276">
	
	
	
</defs><sodipodi:namedview
   id="namedview216274"
   pagecolor="#ffffff"
   bordercolor="#666666"
   borderopacity="1.0"
   inkscape:pageshadow="2"
   inkscape:pageopacity="0"
   inkscape:pagecheckerboard="0"
   showgrid="false"
   inkscape:zoom="3.0480745"
   inkscape:cx="93.501652"
   inkscape:cy="87.92436"
   inkscape:window-width="1600"
   inkscape:window-height="828"
   inkscape:window-x="0"
   inkscape:window-y="0"
   inkscape:window-maximized="1"
   inkscape:current-layer="layer1"
   inkscape:showpageshadow="2"
   inkscape:deskcolor="#d1d1d1" />
<g
   inkscape:groupmode="layer"
   id="layer2"
   inkscape:label="BG" />
<g
   inkscape:groupmode="layer"
   id="layer1"
   inkscape:label="Logo"><path
     style="fill:#000000;stroke-width:1"
     d="m 9.178204,54.351768 v -6.468676 h 7.546778 7.546787 l -0.02125,6.447509 -0.02125,6.447504 -7.525547,0.02119 -7.525538,0.02119 z M 9.063551,43.633125 C 9.033766,43.074411 8.91668,39.855842 8.80339,36.480748 8.273305,20.68838 8.142217,17.219319 7.955781,14.049227 7.852162,12.28744 7.811625,10.373065 7.810908,7.2078213 L 7.81,2.8127356 l 8.976749,-0.021103 8.976757,-0.021104 -9.08e-4,0.7259738 c -4.63e-4,0.3992855 -0.03687,1.6588925 -0.08064,2.7991268 -0.04377,1.1402352 -0.103711,2.7261972 -0.133241,3.5243609 -0.02951,0.7981639 -0.0701,1.4791949 -0.09017,1.5134019 -0.02007,0.03421 -1.7508,0.06219 -3.84613,0.06219 h -3.809716 v 3.773139 3.773139 h 3.60729 3.607289 v 3.814602 3.814604 h -3.648779 -3.648743 v 5.017032 5.017028 h 3.448323 3.448324 l -0.05566,1.803645 c -0.0306,0.992005 -0.06756,1.882089 -0.08209,1.977968 -0.01453,0.09588 -0.05376,1.094105 -0.08718,2.218276 l -0.06075,2.043949 H 16.724087 9.117649 Z"
     id="path302" /></g></svg>
