<?xml version="1.0" encoding="UTF-8" standalone="no"?>
<!-- Generator: Adobe Illustrator 16.0.0, SVG Export Plug-In . SVG Version: 6.00 Build 0)  -->

<svg
   version="1.1"
   id="Layer_1"
   x="0px"
   y="0px"
   width="256"
   height="64"
   viewBox="0 0 256 64"
   enable-background="new 0 0 280 280"
   xml:space="preserve"
   sodipodi:docname="ch8.svg"
   inkscape:version="1.2.2 (b0a8486541, 2022-12-01)"
   inkscape:export-filename="../../../../../../Plocha/ch8.png"
   inkscape:export-xdpi="96"
   inkscape:export-ydpi="96"
   xmlns:inkscape="http://www.inkscape.org/namespaces/inkscape"
   xmlns:sodipodi="http://sodipodi.sourceforge.net/DTD/sodipodi-0.dtd"
   xmlns="http://www.w3.org/2000/svg"
   xmlns:svg="http://www.w3.org/2000/svg"><defs
   id="defs55" /><sodipodi:namedview
   id="namedview53"
   pagecolor="#000000"
   bordercolor="#000000"
   borderopacity="0.25"
   inkscape:showpageshadow="2"
   inkscape:pageopacity="0"
   inkscape:pagecheckerboard="0"
   inkscape:deskcolor="#d1d1d1"
   showgrid="false"
   inkscape:zoom="1.2321429"
   inkscape:cx="-65.739128"
   inkscape:cy="76.289852"
   inkscape:window-width="1600"
   inkscape:window-height="828"
   inkscape:window-x="0"
   inkscape:window-y="0"
   inkscape:window-maximized="1"
   inkscape:current-layer="g50" />

<g
   id="g50">
	
	
	
	
	
	
	
	
	
	
	
	
	
	
	
	
	
	
	
	
	
	
	
<path
   fill-rule="evenodd"
   clip-rule="evenodd"
   fill="#ffffff"
   d="m 12.679321,28.460481 c 0,5.022093 0,9.892235 0,14.939397 1.555358,0 2.941612,0 4.579872,0 0,-4.878058 0,-9.798118 0,-14.882443 1.755908,0 3.267726,0 4.998564,0 0,4.979872 0,9.906969 0,14.945115 1.553378,0 2.893454,0 4.417586,0 0,-3.469814 0,-6.910601 0,-10.351388 0.138757,-0.06267 0.277514,-0.126223 0.416492,-0.188895 1.407584,2.428144 3.002964,4.7415 4.174376,7.314339 1.426716,3.134025 3.450462,3.997136 6.472558,3.029792 0,-4.795595 0,-9.727969 0,-14.786566 1.687079,0 3.14744,0 4.850791,0 0,4.999883 0,9.925 0,14.971283 1.628586,0 3.017259,0 4.614838,0 0,-5.025612 0,-9.953368 0,-14.681014 0.259043,-0.241451 0.306762,-0.324134 0.360857,-0.330731 4.698619,-0.583396 4.797795,-0.477404 4.694441,4.997685 -0.222979,11.7416 -8.425277,22.215252 -18.472103,24.231742 C 20.807072,60.273301 7.5452982,48.726093 7.8140162,31.562621 c 0.05058,-3.227704 0.03782,-3.233861 2.8079128,-3.212311 0.631115,0.0048 1.262011,0.06575 2.057392,0.110171 z"
   id="path379101"
   style="fill:#ffffff;stroke-width:1" /><path
   fill-rule="evenodd"
   clip-rule="evenodd"
   fill="#ffffff"
   d="m 33.325141,24.502267 c 0,3.155356 0,5.912252 0,8.669367 -0.135239,0.05871 -0.271357,0.117427 -0.407696,0.176581 C 31.683142,31.124138 30.402001,28.932168 29.22927,26.665431 28.450821,25.16087 27.483698,24.511502 25.907889,24.541409 20.329448,24.647181 14.748587,24.582529 9.1609094,24.582529 9.7636564,16.351863 19.21653,7.4441243 28.180563,6.5539663 c 10.205374,-1.013743 20.54115,7.0174717 22.862862,17.9482997 -5.841003,0 -11.640447,0 -17.718284,1e-6 z"
   id="path379103"
   style="fill:#ffffff;stroke-width:1" /></g>
</svg>
