<?xml version="1.0" encoding="UTF-8" standalone="no"?>
<!-- Generator: Adobe Illustrator 16.0.0, SVG Export Plug-In . SVG Version: 6.00 Build 0)  -->

<svg
   version="1.1"
   id="Layer_1"
   x="0px"
   y="0px"
   width="280px"
   height="280px"
   viewBox="0 0 280 280"
   enable-background="new 0 0 280 280"
   xml:space="preserve"
   sodipodi:docname="pbs.svg"
   inkscape:version="1.2.2 (b0a8486541, 2022-12-01)"
   xmlns:inkscape="http://www.inkscape.org/namespaces/inkscape"
   xmlns:sodipodi="http://sodipodi.sourceforge.net/DTD/sodipodi-0.dtd"
   xmlns="http://www.w3.org/2000/svg"
   xmlns:svg="http://www.w3.org/2000/svg"><defs
   id="defs21091" /><sodipodi:namedview
   id="namedview21089"
   pagecolor="#ffffff"
   bordercolor="#000000"
   borderopacity="0.25"
   inkscape:showpageshadow="2"
   inkscape:pageopacity="0.0"
   inkscape:pagecheckerboard="0"
   inkscape:deskcolor="#d1d1d1"
   showgrid="false"
   inkscape:zoom="0.47514194"
   inkscape:cx="180.99855"
   inkscape:cy="284.12562"
   inkscape:window-width="1600"
   inkscape:window-height="820"
   inkscape:window-x="0"
   inkscape:window-y="0"
   inkscape:window-maximized="1"
   inkscape:current-layer="Layer_1" />


<path
   style="fill:#e37c26;stroke-width:1;fill-opacity:1"
   d="m 36.537273,174.36809 c -7.510372,-3.27135 -15.205121,-10.87241 -17.817781,-17.60085 -5.202818,-13.39892 4.257122,-28.54923 19.788087,-31.69107 3.218596,-0.65111 8.497806,-0.45933 11.911078,0.4327 10.164501,2.65641 17.295257,11.78518 17.377272,22.24634 0.04457,5.68485 -1.594068,9.73006 -5.554204,13.71131 -2.705713,2.72015 -6.450263,4.7815 -10.202095,5.61621 -3.246339,0.72224 -8.398965,0.50093 -10.921688,-0.4691 -5.919563,-2.27617 -10.421537,-7.06874 -11.872317,-12.63867 -1.789295,-6.86956 1.720788,-14.2967 8.296615,-17.55514 l 2.599311,-1.28801 3.673074,0.0126 c 3.055859,0.0105 3.954199,0.12517 5.346056,0.68223 3.659766,1.46475 6.48778,4.56443 7.478933,8.19737 0.965996,3.54074 0.214562,7.89328 -1.824179,10.56621 -1.099927,1.44207 -3.571351,2.64379 -5.806104,2.82317 -1.898594,0.1524 -4.86752,-0.34476 -5.19176,-0.86939 -0.09361,-0.15147 0.0013,-0.74974 0.21097,-1.3295 0.317289,-0.87744 0.496196,-1.02523 1.067519,-0.88184 1.892796,0.47506 4.516697,-1.68825 5.447788,-4.4915 1.923052,-5.78977 -1.53268,-10.72833 -7.150635,-10.21891 -5.592709,0.50713 -8.723967,6.17806 -7.195447,13.03146 2.420685,10.85359 15.755982,13.78997 21.764322,4.79241 1.964927,-2.9425 2.845463,-6.10275 2.86969,-10.29932 0.03226,-5.58795 -1.606585,-9.73723 -5.158131,-13.05952 -4.219339,-3.94699 -10.730533,-5.50197 -16.673741,-3.98195 -3.359164,0.85913 -5.772174,2.24423 -8.248699,4.73486 -3.895493,3.91769 -5.620628,8.41402 -5.620628,14.64943 0,4.35367 0.619253,7.4745 2.100291,10.58477 2.149755,4.51461 5.467872,8.08725 10.657635,11.47517 1.260652,0.82296 2.340413,1.54461 2.39947,1.60366 0.216181,0.21619 -0.688848,2.28207 -0.998156,2.27847 -0.175515,-0.002 -1.41416,-0.4807 -2.752546,-1.06366 z m 50.047371,-12.19507 c -6.075204,-1.63269 -9.765359,-7.716 -9.760716,-16.09078 0.0021,-3.75435 0.475349,-6.03524 1.830331,-8.82118 2.911123,-5.9855 9.126905,-8.86151 15.768055,-7.29581 3.66626,0.86435 5.967616,2.5629 7.320036,5.40264 0.49589,1.04125 0.98439,2.26959 1.08557,2.72966 l 0.18394,0.83649 h -3.331256 c -3.19036,0 -3.34003,-0.029 -3.53881,-0.6844 -0.55483,-1.8296 -2.53025,-2.96575 -5.15657,-2.96575 -5.32526,0 -7.758176,3.94432 -7.371476,11.95086 0.322666,6.68071 2.508066,9.65351 7.087286,9.64081 2.54473,-0.007 4.00358,-0.87077 4.99895,-2.95964 l 0.76045,-1.59586 3.3088,-0.001 3.308786,-0.001 -0.20027,1.29275 c -0.29443,1.90061 -1.55467,4.28225 -2.917396,5.51339 -3.33103,3.00939 -8.84557,4.26643 -13.37571,3.04897 z m 61.863216,0.0356 c -5.32339,-1.15826 -9.18599,-4.87288 -10.64247,-10.23472 -0.70817,-2.60704 -0.8527,-7.04173 -0.32435,-9.95236 1.27386,-7.01758 5.48766,-11.33491 11.9825,-12.27691 5.03117,-0.72972 9.73727,0.61932 12.55542,3.5991 2.61162,2.7614 3.93055,6.64286 3.94098,11.59786 l 0.005,2.50947 h -11.1417 -11.1417 l 0.2113,1.59694 c 0.66699,5.04066 4.02089,7.87617 9.3024,7.86457 2.69142,-0.006 3.6329,-0.29522 4.48467,-1.37806 0.59269,-0.75348 0.7383,-0.78316 3.84218,-0.78316 3.14482,0 3.22597,0.0172 3.21945,0.6844 -0.0186,1.91061 -2.08636,4.58145 -4.42238,5.71229 -2.9184,1.41277 -8.118,1.8773 -11.87157,1.06058 z m 10.68977,-21.37344 c -0.11185,-0.62737 -0.57406,-1.75058 -1.02713,-2.49602 -2.41616,-3.97536 -9.31511,-4.16319 -12.58536,-0.34264 -1.01182,1.18208 -1.91078,3.42793 -1.52611,3.8126 0.0917,0.0917 3.58116,0.16673 7.75435,0.16673 h 7.58762 z m 21.43553,21.35445 c -2.25912,-0.63051 -3.96712,-1.68241 -5.42966,-3.34394 -1.49717,-1.70088 -2.18218,-3.60645 -2.18218,-6.07048 0,-4.92827 2.64841,-8.22802 7.99558,-9.962 1.50263,-0.48728 3.00502,-0.64389 7.32692,-0.76379 l 5.43669,-0.15081 -0.14276,-2.22462 c -0.25113,-3.91309 -1.44078,-4.84634 -6.1778,-4.84634 -4.23369,0 -5.59667,0.6375 -6.34076,2.96574 -0.14773,0.46225 -0.58941,0.53231 -3.3556,0.53231 -1.75201,0 -3.24553,-0.10266 -3.31892,-0.22813 -0.0734,-0.12547 0.0369,-0.88894 0.24519,-1.6966 1.06076,-4.11368 4.77059,-6.34812 11.25905,-6.78139 7.20044,-0.48081 11.83622,1.54111 13.60017,5.93177 0.66727,1.66091 0.68971,2.06367 0.78615,14.105 l 0.0993,12.39528 H 197.01 193.64548 v -1.38342 -1.38342 l -1.39379,0.95896 c -3.08388,2.12177 -8.071,2.95272 -11.67851,1.94588 z m 8.61147,-5.58336 c 2.53434,-1.23639 4.46083,-4.77191 4.46083,-8.18658 v -1.27281 l -4.33454,0.002 c -4.7595,0.002 -6.25262,0.27735 -7.78883,1.43708 -2.89879,2.18838 -2.327,6.9436 1.02086,8.48977 1.4036,0.64823 4.85032,0.40476 6.64168,-0.46916 z m 30.45732,5.43728 c -2.27065,-0.72018 -4.17295,-2.30206 -5.19588,-4.32071 -1.3816,-2.72647 -1.62634,-4.82397 -1.63208,-13.98768 l -0.005,-8.43066 -3.26992,-0.0863 -3.26992,-0.0863 v -2.73761 -2.73761 l 3.26992,-0.0863 3.26992,-0.0863 v -3.58139 -3.5814 l 3.15987,-0.8189 c 1.73794,-0.4504 3.24362,-0.81891 3.34597,-0.81891 0.10235,0 0.18609,1.98477 0.18609,4.41059 v 4.41059 h 5.77939 5.77939 v 2.88969 2.8897 h -5.80288 -5.80289 l 0.10441,9.2014 c 0.11383,10.03133 0.24741,10.87123 1.90131,11.9549 1.26383,0.8281 4.72119,0.48384 7.31073,-0.72795 1.12939,-0.52851 2.10651,-0.96092 2.17138,-0.96092 0.0648,0 0.11794,1.35194 0.11794,3.00432 v 3.00433 l -1.51848,0.65323 c -3.15556,1.35749 -6.86214,1.59351 -9.89899,0.63032 z m 27.31465,0.17597 c -8.20185,-1.86876 -12.63374,-9.97305 -10.90005,-19.93219 1.55901,-8.95575 7.97934,-13.74749 16.85057,-12.57626 7.52009,0.99285 11.58919,6.2791 11.60666,15.07843 l 0.005,2.66156 H 253.40579 242.2928 l 0.20028,1.59694 c 0.30141,2.40325 1.25387,4.35773 2.77693,5.69839 1.90756,1.6791 3.74536,2.21781 7.12255,2.08784 2.65908,-0.10234 2.77529,-0.13737 3.63011,-1.09431 l 0.88308,-0.98857 h 3.19816 3.19816 v 0.76375 c 0,1.36172 -1.23928,3.48411 -2.67413,4.5797 -0.75534,0.57674 -2.27632,1.33377 -3.37997,1.68229 -2.61547,0.82593 -7.65721,1.04267 -10.29164,0.44243 z m 10.87053,-20.80667 c 0,-2.09043 -1.66736,-4.43026 -3.87829,-5.44246 -1.43849,-0.65856 -1.97469,-0.74235 -3.98686,-0.62297 -2.47455,0.14681 -3.86475,0.67597 -5.31843,2.0244 -1.06754,0.99024 -2.02535,2.80217 -2.02535,3.83143 v 0.77257 h 7.60447 c 7.1973,0 7.60446,-0.0301 7.60446,-0.56297 z m -148.13493,4.66938 v -15.96937 h 3.49805 3.49805 v 1.54126 1.54126 l 1.31699,-1.07917 c 2.2341,-1.83069 3.94697,-2.4373 6.89583,-2.44217 2.15083,-0.003 2.87121,0.12859 4.28481,0.78604 3.36936,1.56702 5.2011,4.31606 5.40007,8.10437 l 0.1164,2.21593 -3.3037,-0.0867 -3.3037,-0.0867 -0.19354,-1.58563 c -0.22735,-1.86269 -1.06159,-3.43269 -2.10445,-3.96046 -1.08445,-0.54882 -3.2951,-0.45664 -4.73553,0.19748 -1.46426,0.66493 -2.71042,2.11713 -3.58874,4.18211 -0.58377,1.37245 -0.63204,2.17664 -0.72295,12.04088 l -0.0974,10.5702 h -3.48008 -3.48009 z"
   id="path338" /></svg>
