<?xml version="1.0" encoding="UTF-8" standalone="no"?>
<!-- Generator: Adobe Illustrator 16.0.0, SVG Export Plug-In . SVG Version: 6.00 Build 0)  -->

<svg
   version="1.1"
   id="Layer_1"
   x="0px"
   y="0px"
   width="280px"
   height="280px"
   viewBox="0 0 280 280"
   enable-background="new 0 0 280 280"
   xml:space="preserve"
   sodipodi:docname="zen.svg"
   inkscape:version="1.2.2 (b0a8486541, 2022-12-01)"
   xmlns:inkscape="http://www.inkscape.org/namespaces/inkscape"
   xmlns:sodipodi="http://sodipodi.sourceforge.net/DTD/sodipodi-0.dtd"
   xmlns:xlink="http://www.w3.org/1999/xlink"
   xmlns="http://www.w3.org/2000/svg"
   xmlns:svg="http://www.w3.org/2000/svg"><defs
   id="defs5011"><linearGradient
     inkscape:collect="always"
     id="linearGradient994"><stop
       style="stop-color:#ffffff;stop-opacity:1;"
       offset="0"
       id="stop990" /><stop
       style="stop-color:#c8c8c8;stop-opacity:1;"
       offset="1"
       id="stop992" /></linearGradient><linearGradient
     inkscape:collect="always"
     id="linearGradient986"><stop
       style="stop-color:#000000;stop-opacity:1;"
       offset="0"
       id="stop982" /><stop
       style="stop-color:#404040;stop-opacity:1;"
       offset="1"
       id="stop984" /></linearGradient><linearGradient
     inkscape:collect="always"
     xlink:href="#linearGradient986"
     id="linearGradient988"
     x1="30.89927"
     y1="130.79931"
     x2="238.42467"
     y2="130.79931"
     gradientUnits="userSpaceOnUse" /><linearGradient
     inkscape:collect="always"
     xlink:href="#linearGradient994"
     id="linearGradient996"
     x1="33.751251"
     y1="130.83382"
     x2="224.9054"
     y2="130.83382"
     gradientUnits="userSpaceOnUse" /></defs><sodipodi:namedview
   id="namedview5009"
   pagecolor="#808080"
   bordercolor="#000000"
   borderopacity="0.25"
   inkscape:showpageshadow="2"
   inkscape:pageopacity="0"
   inkscape:pagecheckerboard="0"
   inkscape:deskcolor="#d1d1d1"
   showgrid="false"
   inkscape:zoom="1.9100011"
   inkscape:cx="162.56535"
   inkscape:cy="119.89522"
   inkscape:window-width="1600"
   inkscape:window-height="820"
   inkscape:window-x="0"
   inkscape:window-y="0"
   inkscape:window-maximized="1"
   inkscape:current-layer="Layer_1"
   inkscape:pageshadow="2"
   showguides="false" />


<path
   style="fill:url(#linearGradient996);stroke-width:2.26772;stroke-linejoin:bevel;fill-opacity:1"
   id="path231"
   sodipodi:type="arc"
   sodipodi:cx="129.32832"
   sodipodi:cy="130.83382"
   sodipodi:rx="95.577072"
   sodipodi:ry="102.15913"
   sodipodi:start="0"
   sodipodi:end="5.575151"
   sodipodi:open="true"
   sodipodi:arc-type="arc"
   d="M 224.9054,130.83382 A 95.577072,102.15913 0 0 1 146.15808,231.39669 95.577072,102.15913 0 0 1 39.678209,166.24918 95.577072,102.15913 0 0 1 80.926366,42.74322 95.577072,102.15913 0 0 1 201.93265,64.395466" /><path
   style="fill:url(#linearGradient988);stroke-width:1;fill-opacity:1"
   d="m 129.24947,234.50932 c -3.58518,-0.20744 -5.71594,-0.42521 -9.70198,-0.99138 -15.4738,-2.1979 -30.623981,-8.15079 -43.72616,-17.18103 -10.707518,-7.37986 -20.077076,-16.85164 -27.272534,-27.5703 -3.979048,-5.92723 -7.291493,-12.10331 -9.954499,-18.56002 -1.630418,-3.95312 -3.490974,-9.55247 -4.45895,-13.41928 -1.781366,-7.11605 -2.756282,-13.53904 -3.157143,-20.7995 -0.105996,-1.91696 -0.104856,-8.42202 0.0011,-10.44906 1.059166,-20.17476 7.737669,-39.15944 19.540723,-55.547503 1.892731,-2.627947 4.606535,-5.990438 7.001131,-8.674678 1.549474,-1.736893 6.059074,-6.24304 7.752053,-7.74616 8.206133,-7.285738 16.943393,-13.00152 26.516944,-17.346837 11.604815,-5.267338 24.232355,-8.37171 37.015255,-9.099929 2.18499,-0.124539 9.32156,-0.131356 11.45382,-0.0114 19.44679,1.097929 37.62208,7.317502 53.47819,18.300166 16.07373,11.133441 28.76197,26.678362 36.43541,44.638499 4.50252,10.538432 7.13668,21.462642 8.06976,33.466522 0.21728,2.79754 0.24756,11.11988 0.0504,13.84989 -0.79283,10.96404 -2.80314,20.27887 -6.51706,30.19733 -1.92211,5.13319 -4.68194,10.90102 -7.53095,15.73903 -5.55919,9.44023 -12.58935,17.98743 -20.72342,25.19531 -11.62277,10.29938 -25.33934,17.84722 -40.2637,22.15604 -6.38927,1.84466 -13.73458,3.14276 -21.04595,3.71934 -2.27614,0.17942 -10.67772,0.26649 -12.96273,0.13437 z m 1.47862,-2.63738 c 0,-0.0488 -0.42933,-0.11886 -0.95408,-0.15557 -0.5248,-0.0378 -1.57833,-0.15672 -2.34119,-0.26648 -9.32711,-1.34046 -17.87114,-5.16848 -25.29171,-11.33161 -1.56353,-1.29856 -4.792174,-4.51788 -6.075952,-6.0584 -7.070185,-8.48402 -10.9387,-17.98826 -11.856482,-29.12915 -0.158978,-1.92827 -0.05793,-6.98341 0.17867,-8.96286 0.774922,-6.47815 2.325768,-11.73908 5.08746,-17.25835 2.42604,-4.84842 5.46921,-9.06275 9.36376,-12.96741 4.117484,-4.12815 8.341654,-7.17465 13.436654,-9.69052 7.05511,-3.48378 14.36727,-5.1799 22.64227,-5.25205 12.46981,-0.10861 24.02462,-4.52889 33.31863,-12.74571 8.08811,-7.15073 13.83599,-17.0584 15.95953,-27.509501 0.74607,-3.671864 0.98679,-6.11279 0.99166,-10.054742 0.004,-4.18288 -0.11089,-5.695118 -0.68957,-8.985269 -2.07443,-11.795076 -8.08373,-22.249616 -17.25035,-30.010833 -7.80569,-6.608887 -17.48754,-10.657277 -27.94329,-11.68428 -1.87929,-0.184718 -6.90389,-0.241125 -9.414,-0.105996 -12.75136,0.686651 -24.54337,3.444222 -35.783056,8.367926 -2.114626,0.92634 -6.531442,3.11422 -8.477514,4.19935 -5.534881,3.086205 -11.026315,6.860578 -15.836421,10.884668 -4.277525,3.578519 -9.10467,8.39976 -12.662182,12.646615 -12.751426,15.222258 -20.771102,33.866588 -22.956863,53.370612 -0.509648,4.54767 -0.616579,6.55801 -0.616625,11.59089 -3.4e-5,5.27298 0.174506,8.22707 0.764143,12.91996 2.767327,22.03115 12.920632,42.74268 28.679802,58.50344 2.459322,2.45963 2.949401,2.9214 5.043548,4.75254 5.685579,4.97156 11.750671,9.20414 18.32391,12.78747 1.344577,0.73298 4.999072,2.57408 6.007973,3.02673 4.859241,2.18019 8.314855,3.48847 12.956215,4.9052 7.67155,2.34163 15.45464,3.70094 24.16276,4.22002 0.21689,0.0114 0.58282,0.0378 0.81323,0.0527 0.23052,0.0151 0.41895,-0.0114 0.41895,-0.0594 z M 133.38356,93.4368 c -4.36939,-0.371344 -8.43352,-3.117668 -10.4797,-7.081944 -0.94255,-1.826191 -1.39024,-3.445919 -1.50391,-5.441271 -0.2521,-4.425111 1.79711,-8.770234 5.38112,-11.410332 0.8615,-0.63461 2.76253,-1.615009 3.79917,-1.959246 1.60781,-0.533949 4.12425,-0.75327 5.88382,-0.512829 4.61682,0.630929 8.57347,3.655782 10.4375,7.979512 1.01684,2.358589 1.31552,5.123389 0.82933,7.677181 -0.59048,3.101454 -2.33123,5.983489 -4.77825,7.910922 -2.77398,2.185044 -5.99851,3.141358 -9.56908,2.838007 z m 3.45626,101.10037 c 2.96239,-0.48005 5.95736,-2.16013 7.89934,-4.4312 2.24215,-2.62212 3.33502,-5.76457 3.20537,-9.21685 -0.13438,-3.58065 -1.50125,-6.6103 -4.11532,-9.1217 -1.83322,-1.76123 -3.898,-2.85023 -6.48931,-3.42253 -1.34682,-0.29752 -3.98757,-0.29829 -5.33032,-0.001 -2.5761,0.56923 -4.66995,1.67439 -6.49265,3.42699 -2.03741,1.95905 -3.26332,4.13012 -3.87495,6.86266 -0.30586,1.36668 -0.32668,3.99744 -0.0421,5.36121 0.82883,3.97394 3.39993,7.38352 6.9384,9.20111 1.18608,0.60925 2.74269,1.14566 3.87522,1.33547 1.13184,0.18964 3.27611,0.19267 4.42639,0.008 z"
   id="path299" /></svg>
