<?xml version="1.0" encoding="UTF-8" standalone="no"?>
<!-- Generator: Adobe Illustrator 16.0.0, SVG Export Plug-In . SVG Version: 6.00 Build 0)  -->

<svg
   version="1.1"
   id="Layer_1"
   x="0px"
   y="0px"
   width="280px"
   height="280px"
   viewBox="0 0 280 280"
   enable-background="new 0 0 280 280"
   xml:space="preserve"
   sodipodi:docname="4fun.svg"
   inkscape:version="1.2.2 (b0a8486541, 2022-12-01)"
   xmlns:inkscape="http://www.inkscape.org/namespaces/inkscape"
   xmlns:sodipodi="http://sodipodi.sourceforge.net/DTD/sodipodi-0.dtd"
   xmlns="http://www.w3.org/2000/svg"
   xmlns:svg="http://www.w3.org/2000/svg"><defs
   id="defs5011" /><sodipodi:namedview
   id="namedview5009"
   pagecolor="#ffffff"
   bordercolor="#000000"
   borderopacity="0.25"
   inkscape:showpageshadow="2"
   inkscape:pageopacity="0.0"
   inkscape:pagecheckerboard="0"
   inkscape:deskcolor="#d1d1d1"
   showgrid="false"
   inkscape:zoom="1.4767857"
   inkscape:cx="121.20919"
   inkscape:cy="87.351875"
   inkscape:window-width="1600"
   inkscape:window-height="826"
   inkscape:window-x="0"
   inkscape:window-y="0"
   inkscape:window-maximized="1"
   inkscape:current-layer="g1225"
   inkscape:pageshadow="2"
   showguides="false" />


<g
   id="g1225"
   transform="matrix(0.51308475,0,0,0.51308475,6.8233866,50.825267)"><polygon
     class="st0"
     points="473.9,156.4 512,68 488,68 462.9,127.6 437.8,68 422.5,68 413.8,68 344.7,68 344.7,87.5 372.7,87.5 372.7,155.9 394.6,155.9 394.6,87.5 422.2,87.5 451.9,156.4 "
     id="polygon1211"
     style="fill:#ca53e2;fill-opacity:1;stroke-width:1.07073"
     transform="matrix(0.92408165,0,0,0.94391123,36.993505,12.748479)" /><path
     class="st0"
     d="m 369.94012,182.84128 c 0,93.91917 -74.57339,170.09281 -166.51951,170.09281 -91.94612,0 -166.427105,-76.17364 -166.427105,-170.09281 0,-93.919165 74.573385,-170.092801 166.519505,-170.092801 91.94613,0 166.42711,76.173636 166.42711,170.092801 z"
     id="path1213"
     style="fill:#ca53e2;fill-opacity:1;stroke-width:1" /><path
     class="st1"
     d="m 289.26779,172.36387 h 16.81829 v 10.6662 H 263.3011 v -23.69218 h 9.42563 v 13.02598 h 6.8382 v -13.02598 h 9.70286 z"
     id="path1215"
     style="fill:#ffffff;stroke-width:1" /><path
     class="st1"
     d="m 306.08608,85.807208 -23.84131,16.235272 h 23.84131 v 10.76059 H 263.3011 v -9.6279 L 287.04999,87.128684 H 263.3011 V 76.368096 h 42.78498 z"
     id="path1217"
     style="fill:#ffffff;stroke-width:1" /><path
     class="st1"
     d="m 306.73293,136.30646 c 0,9.91107 -5.91412,15.85771 -16.63347,15.85771 H 263.3011 v -10.76059 h 26.33632 c 4.80523,0 7.30025,-1.51026 7.30025,-5.19151 0,-3.77565 -2.40261,-5.56908 -7.30025,-5.56908 H 263.3011 V 119.9768 h 26.79836 c 10.44213,0 16.63347,6.51298 16.63347,16.32966 z"
     id="path1219"
     style="fill:#ffffff;stroke-width:1" /><polygon
     class="st1"
     points="237.9,188.3 237.9,67.4 141.3,67.4 49.8,188.3 49.8,249.5 160.5,249.5 160.5,295.8 237.9,295.8 237.9,249.5 291.2,249.5 291.2,188.3 "
     id="polygon1221"
     style="fill:#ffffff;fill-opacity:1;stroke-width:1.07073"
     transform="matrix(0.92408165,0,0,0.94391123,36.993505,12.748479)" /><polygon
     class="st0"
     points="160.7,177.9 141.3,193.6 141.3,162.2 141.3,130.8 160.7,146.5 180.1,162.2 "
     id="polygon1223"
     style="fill:#ca53e2;fill-opacity:1;stroke-width:1.07073"
     transform="matrix(0.92408165,0,0,0.94391123,36.993505,12.748479)" /></g></svg>
