<?xml version="1.0" encoding="UTF-8" standalone="no"?>
<!-- Generator: Adobe Illustrator 16.0.0, SVG Export Plug-In . SVG Version: 6.00 Build 0)  -->

<svg
   version="1.1"
   id="Layer_1"
   x="0px"
   y="0px"
   width="280px"
   height="280px"
   viewBox="0 0 280 280"
   enable-background="new 0 0 280 280"
   xml:space="preserve"
   sodipodi:docname="e.svg"
   inkscape:version="1.2.2 (b0a8486541, 2022-12-01)"
   xmlns:inkscape="http://www.inkscape.org/namespaces/inkscape"
   xmlns:sodipodi="http://sodipodi.sourceforge.net/DTD/sodipodi-0.dtd"
   xmlns="http://www.w3.org/2000/svg"
   xmlns:svg="http://www.w3.org/2000/svg"><defs
   id="defs216276">
	
	
	
</defs><sodipodi:namedview
   id="namedview216274"
   pagecolor="#ffffff"
   bordercolor="#666666"
   borderopacity="1.0"
   inkscape:pageshadow="2"
   inkscape:pageopacity="0.0"
   inkscape:pagecheckerboard="0"
   showgrid="false"
   inkscape:zoom="0.74285714"
   inkscape:cx="4.0384616"
   inkscape:cy="118.46154"
   inkscape:window-width="1600"
   inkscape:window-height="826"
   inkscape:window-x="0"
   inkscape:window-y="0"
   inkscape:window-maximized="1"
   inkscape:current-layer="layer1"
   inkscape:showpageshadow="2"
   inkscape:deskcolor="#d1d1d1" />
<g
   inkscape:groupmode="layer"
   id="layer2"
   inkscape:label="BG" />
<g
   inkscape:groupmode="layer"
   id="layer1"
   inkscape:label="Logo"><path
     style="fill:#000000;stroke-width:0.999999"
     d="m 111.86265,228.38285 v -26.51687 h 30.93633 30.93634 l -0.0871,26.43009 -0.0871,26.43009 -30.84927,0.0868 -30.84926,0.0868 z m -0.46996,-43.93864 c -0.12215,-2.29032 -0.60205,-15.48412 -1.06646,-29.31955 -2.17298,-64.737226 -2.71034,-78.957852 -3.47461,-91.952924 -0.42474,-7.222046 -0.59092,-15.069591 -0.59385,-28.044789 l -0.004,-18.016653 36.79816,-0.0865 36.79816,-0.0865 -0.004,2.975964 c -0.002,1.636781 -0.15115,6.800254 -0.33049,11.474386 -0.17934,4.674132 -0.42513,11.175424 -0.54619,14.447315 -0.12108,3.271892 -0.28734,6.063624 -0.36947,6.203848 -0.0821,0.140224 -7.17701,0.254952 -15.76637,0.254952 h -15.61704 v 15.467127 15.467127 h 14.78726 14.78725 V 98.865106 114.50221 H 161.83372 146.8765 v 20.56618 20.56617 h 14.13562 14.13562 l -0.22823,7.39363 c -0.12553,4.0665 -0.27698,7.7152 -0.33656,8.10823 -0.0596,0.39304 -0.22032,4.48503 -0.3572,9.09331 l -0.24888,8.37871 h -31.18123 -31.18086 z"
     id="path302" /></g></svg>
