<?xml version="1.0" encoding="UTF-8" standalone="no"?>
<!-- Generator: Adobe Illustrator 16.0.0, SVG Export Plug-In . SVG Version: 6.00 Build 0)  -->

<svg
   version="1.1"
   id="Layer_1"
   x="0px"
   y="0px"
   width="280px"
   height="280px"
   viewBox="0 0 280 280"
   enable-background="new 0 0 280 280"
   xml:space="preserve"
   sodipodi:docname="polsat.svg"
   inkscape:version="1.2.2 (b0a8486541, 2022-12-01)"
   xmlns:inkscape="http://www.inkscape.org/namespaces/inkscape"
   xmlns:sodipodi="http://sodipodi.sourceforge.net/DTD/sodipodi-0.dtd"
   xmlns="http://www.w3.org/2000/svg"
   xmlns:svg="http://www.w3.org/2000/svg"><defs
   id="defs216276">
	
	
	
</defs><sodipodi:namedview
   id="namedview216274"
   pagecolor="#ffffff"
   bordercolor="#666666"
   borderopacity="1.0"
   inkscape:pageshadow="2"
   inkscape:pageopacity="0.0"
   inkscape:pagecheckerboard="0"
   showgrid="false"
   inkscape:zoom="0.74285714"
   inkscape:cx="223.46154"
   inkscape:cy="193.84615"
   inkscape:window-width="1600"
   inkscape:window-height="826"
   inkscape:window-x="0"
   inkscape:window-y="0"
   inkscape:window-maximized="1"
   inkscape:current-layer="layer1"
   inkscape:showpageshadow="2"
   inkscape:deskcolor="#d1d1d1" />
<g
   inkscape:groupmode="layer"
   id="layer2"
   inkscape:label="BG" />
<g
   inkscape:groupmode="layer"
   id="layer1"
   inkscape:label="Logo"><g
     id="g972"
     transform="matrix(0.41806108,0,0,0.41806108,27.360185,18.489244)"
     style="stroke-width:2.392">
	<path
   class="st0"
   d="m 56.9,453.7 c -19.8,0 -29.4,9.7 -31.6,28.9 L 23.4,482.4 26,456 H 0 v 124 h 26.8 v -28.7 l -2.2,-20.7 1.8,-0.1 c 3.1,10.7 12.2,18.6 29.2,18.6 C 79.7,549.1 95,530 95,501.4 95.1,472.6 79.8,453.7 56.9,453.7 Z m -8.2,72.8 c -14.4,0 -22.2,-8.8 -22.2,-25.1 0,-16.3 7.8,-25.1 22.2,-25.1 14.3,0 21.8,8.8 21.8,25.1 0,16.3 -7.5,25.1 -21.8,25.1 z"
   id="path960"
   style="fill:#ffc700;stroke-width:2.392" />
	<path
   class="st0"
   d="m 152.8,453.7 c -24.6,-1.4 -45.6,17.5 -47,42.1 -0.1,1.9 -0.1,3.7 0,5.6 -1.7,24.6 16.8,45.9 41.4,47.6 1.9,0.1 3.7,0.1 5.6,0 24.6,1.4 45.6,-17.5 47,-42.1 0.1,-1.9 0.1,-3.7 0,-5.6 1.7,-24.6 -16.8,-45.9 -41.4,-47.6 -1.9,-0.1 -3.8,-0.1 -5.6,0 z m 0,72.6 c -14.6,0 -22.4,-8.6 -22.4,-24.9 0,-16.2 7.7,-24.9 22.4,-24.9 14.6,0 22.4,8.8 22.4,24.9 -0.1,16.3 -7.8,24.9 -22.4,24.9 z"
   id="path962"
   style="fill:#ffc700;stroke-width:2.392" />
	<path
   class="st0"
   d="m 247.7,525 c -5.7,0 -8.4,-3.4 -8.4,-10 V 421.8 H 213.8 V 519 c 0,18.6 9.7,30.1 27.2,30.1 6.7,0.1 13.4,-1.3 19.4,-4.1 l -2.2,-22.4 c -3.3,1.5 -6.9,2.3 -10.5,2.4 z"
   id="path964"
   style="fill:#ffc700;stroke-width:2.392" />
	<path
   class="st0"
   d="M 323.4,491.6 303.3,487 c -6.4,-1.4 -8.4,-2.9 -8.4,-6.2 0,-4.6 4,-6.5 13.6,-6.5 11.1,0.2 22.1,2.6 32.2,7.2 l 2.2,-22.2 c -10.8,-3.7 -22.1,-5.6 -33.5,-5.5 -23.9,0 -38.2,10.5 -38.2,28 0,14.6 6.7,22.7 22,26.7 l 20.1,5.2 c 7.9,2.1 10.2,3.8 10.2,7.7 -0.2,5.2 -3.8,6.9 -14.3,6.9 -11.7,0.4 -23.4,-1.8 -34.3,-6.4 l -2.4,22.8 c 11.9,3.4 24.3,4.9 36.6,4.3 23.7,0 38,-10.2 38,-29.2 0.9,-14.2 -9.5,-26.6 -23.7,-28.2 z"
   id="path966"
   style="fill:#ffc700;stroke-width:2.392" />
	<path
   class="st0"
   d="m 428.3,470.1 -1.9,0.1 c -4.1,-9.8 -11.3,-16.5 -28.6,-16.5 -24.6,0 -40.1,19.1 -40.1,47.7 0,28.7 15.3,47.7 38.2,47.7 19.8,0 29.4,-10.5 31.6,-31 l 2,0.2 -3,28.4 h 26.3 v -90.5 h -26 z m -24,56.4 c -14.3,0 -21.8,-8.8 -21.8,-25.1 0,-16.3 7.5,-25.1 21.8,-25.1 14.4,0 22.2,8.8 22.2,25.1 0,16.3 -7.8,25.1 -22.2,25.1 z"
   id="path968"
   style="fill:#ffc700;stroke-width:2.392" />
	<path
   class="st0"
   d="m 530.7,522.4 c -4,1.7 -8.2,2.6 -12.6,2.6 -8.8,0 -11.5,-2.9 -11.5,-12.7 v -32.9 h 21.5 v -23.2 h -21.5 v -22.7 l -25.5,3.8 v 18.9 h -13.7 v 23.2 h 13.8 v 39.7 c -1.6,14.9 9.2,28.3 24.1,29.9 1.8,0.2 3.7,0.2 5.5,0 7.7,0.3 15.3,-1.1 22.4,-4.1 z"
   id="path970"
   style="fill:#ffc700;stroke-width:2.392" />
</g><g
     id="g984"
     transform="matrix(0.41806108,0,0,0.41806108,27.360185,18.489244)"
     style="stroke-width:2.392">
	<path
   class="st0"
   d="m 147.4,252.1 c 41.1,5.9 89.5,-31.9 128.5,-61.2 36.6,-27.5 81.6,-61.3 115.4,-60.9 20.5,-0.6 39.2,11.3 47.5,30 -0.6,-6.5 -3.7,-26 -5.9,-35.3 -6.3,-24.9 -29.2,-41.9 -54.9,-40.8 -40.2,0.2 -85.2,35 -121,61.3 -44.5,32.7 -84.4,66.9 -126.7,59.1 -22.7,-4.2 -32.5,-14.7 -35.8,-24.1 1.3,11.7 3.3,23.4 5.9,34.9 7.6,20.2 25.7,34.3 47,37 z"
   id="path974"
   style="fill:#ffc700;stroke-width:2.392" />
	<path
   class="st1"
   d="m 322.5,9.2 c -77,-26 -161.8,4.3 -204.8,73.3 0,0 9,19.4 46.2,-11.6 57.9,-48.2 88,-70.2 158.6,-61.7 z"
   id="path976"
   style="fill:#ffe103;stroke-width:2.392" />
	<path
   class="st2"
   d="m 231.2,62.5 c -17.8,13 -43.6,32.8 -62,45 -21.7,14.5 -51.9,34.9 -66.6,7.9 -3,8.7 -5.1,17.6 -6.3,26.7 2.5,16.8 17.5,28.9 34.5,27.9 32.4,0.6 62.4,-27.4 108.2,-61.4 48.2,-35.8 81.7,-59.2 121,-54.6 23.1,1.9 44.1,14 57.4,33 C 404.1,63.2 385,43.2 362,28.6 333.5,10.3 288.7,20.5 231.2,62.5 Z"
   id="path978"
   style="fill:#fff32d;stroke-width:2.392" />
	<path
   class="st3"
   d="m 210.2,328.1 c 77,26 161.8,-4.3 204.8,-73.3 0,0 -9,-19.4 -46.2,11.6 -57.9,48.2 -88,70.1 -158.6,61.7 z"
   id="path980"
   style="fill:#fbad18;stroke-width:2.392" />
	<path
   class="st3"
   d="m 301.5,274.8 c 17.8,-13 43.6,-32.8 62,-45 21.7,-14.5 51.9,-34.9 66.6,-7.9 3,-8.7 5.1,-17.6 6.3,-26.7 -2.5,-16.8 -17.5,-28.9 -34.5,-27.9 -32.4,-0.6 -62.4,27.4 -108.3,61.4 -48.2,35.8 -81.7,59.2 -121,54.6 -23.1,-1.9 -44.2,-14 -57.4,-33 13.4,23.7 32.5,43.8 55.5,58.4 28.5,18.3 73.3,8.2 130.8,-33.9 z"
   id="path982"
   style="fill:#fbad18;stroke-width:2.392" />
</g></g></svg>
