<?xml version="1.0" encoding="UTF-8" standalone="no"?>
<!-- Generator: Adobe Illustrator 16.0.0, SVG Export Plug-In . SVG Version: 6.00 Build 0)  -->

<svg
   version="1.1"
   id="Layer_1"
   x="0px"
   y="0px"
   width="280px"
   height="280px"
   viewBox="0 0 280 280"
   enable-background="new 0 0 280 280"
   xml:space="preserve"
   sodipodi:docname="polsatnews.svg"
   inkscape:version="1.2.2 (b0a8486541, 2022-12-01)"
   xmlns:inkscape="http://www.inkscape.org/namespaces/inkscape"
   xmlns:sodipodi="http://sodipodi.sourceforge.net/DTD/sodipodi-0.dtd"
   xmlns="http://www.w3.org/2000/svg"
   xmlns:svg="http://www.w3.org/2000/svg"><defs
   id="defs216276">
	
	
	
</defs><sodipodi:namedview
   id="namedview216274"
   pagecolor="#ffffff"
   bordercolor="#666666"
   borderopacity="1.0"
   inkscape:pageshadow="2"
   inkscape:pageopacity="0.0"
   inkscape:pagecheckerboard="0"
   showgrid="false"
   inkscape:zoom="0.74285714"
   inkscape:cx="214.03846"
   inkscape:cy="193.84615"
   inkscape:window-width="1600"
   inkscape:window-height="826"
   inkscape:window-x="0"
   inkscape:window-y="0"
   inkscape:window-maximized="1"
   inkscape:current-layer="layer1"
   inkscape:showpageshadow="2"
   inkscape:deskcolor="#d1d1d1" />
<g
   inkscape:groupmode="layer"
   id="layer2"
   inkscape:label="BG" />
<g
   inkscape:groupmode="layer"
   id="layer1"
   inkscape:label="Logo"><g
     id="g822"
     transform="matrix(0.68547089,0,0,0.68547089,48.729967,22.336513)"
     style="stroke-width:1.45885">
	<g
   id="g810"
   style="stroke-width:1.45885">
		<path
   class="st0"
   d="m 26.1,257.5 c 11.3,0 18.5,-8.9 18.5,-22.4 0,-13.5 -7.2,-22.4 -17.9,-22.4 -9.3,0 -13.8,4.5 -14.8,13.6 L 11,226.2 12.2,213.9 H 0 V 272 h 12.6 v -13.5 l -1,-9.7 0.9,-0.1 c 1.4,5.1 5.7,8.8 13.6,8.8 z m -3.3,-34.1 c 6.7,0 10.2,4.1 10.2,11.8 0,7.7 -3.5,11.8 -10.2,11.8 -6.8,0 -10.4,-4.1 -10.4,-11.8 0,-7.7 3.7,-11.8 10.4,-11.8 z"
   id="path798"
   style="fill:#00b0d2;stroke-width:1.45885" />
		<path
   class="st0"
   d="m 93.7,235.1 c 0.8,-11.5 -7.9,-21.5 -19.4,-22.3 -0.9,-0.1 -1.7,-0.1 -2.6,0 -11.5,-0.6 -21.4,8.2 -22,19.7 0,0.9 0,1.7 0,2.6 -0.8,11.5 7.9,21.5 19.4,22.3 0.9,0.1 1.8,0.1 2.6,0 11.5,0.6 21.4,-8.2 22,-19.7 0,-0.8 0,-1.7 0,-2.6 z m -22.1,11.7 c -6.9,0 -10.5,-4 -10.5,-11.7 0,-7.6 3.6,-11.7 10.5,-11.7 6.9,0 10.5,4.1 10.5,11.7 0,7.7 -3.6,11.7 -10.5,11.7 z"
   id="path800"
   style="fill:#00b0d2;stroke-width:1.45885" />
		<path
   class="st0"
   d="m 113,257.5 c 3.1,0.1 6.3,-0.6 9.1,-1.9 l -1,-10.5 c -1.5,0.7 -3.2,1.1 -4.9,1.1 -2.7,0 -4,-1.6 -4,-4.7 v -43.7 h -11.9 v 45.6 c 0,8.7 4.5,14.1 12.7,14.1 z"
   id="path802"
   style="fill:#00b0d2;stroke-width:1.45885" />
		<path
   class="st0"
   d="m 137.5,238.4 9.4,2.4 c 3.7,1 4.8,1.8 4.8,3.6 -0.1,2.4 -1.8,3.2 -6.7,3.2 -5.5,0.2 -11,-0.9 -16.1,-3 l -1.1,10.7 c 5.6,1.6 11.4,2.3 17.2,2 11.1,0 17.8,-4.8 17.8,-13.7 0.4,-6.7 -4.5,-12.5 -11.1,-13.2 l -9.4,-2.2 c -3,-0.6 -4,-1.4 -4,-2.9 0,-2.2 1.9,-3.1 6.4,-3.1 5.2,0.1 10.3,1.2 15.1,3.4 l 1,-10.4 c -5.1,-1.7 -10.4,-2.6 -15.7,-2.6 -11.2,0 -17.9,4.9 -17.9,13.1 -0.1,7.1 3.1,10.9 10.3,12.7 z"
   id="path804"
   style="fill:#00b0d2;stroke-width:1.45885" />
		<path
   class="st0"
   d="m 200.5,243 0.9,0.1 -1.4,13.3 h 12.3 V 214 h -12.2 l 0.6,6.5 -0.9,0.1 c -1.9,-4.6 -5.3,-7.7 -13.4,-7.7 -11.5,0 -18.8,8.9 -18.8,22.4 0,13.5 7.2,22.4 17.9,22.4 9.5,-0.2 14,-5.1 15,-14.7 z m -21.2,-7.9 c 0,-7.7 3.6,-11.8 10.2,-11.8 6.8,0 10.4,4.1 10.4,11.8 0,7.7 -3.6,11.8 -10.4,11.8 -6.6,0 -10.2,-4.1 -10.2,-11.8 z"
   id="path806"
   style="fill:#00b0d2;stroke-width:1.45885" />
		<path
   class="st0"
   d="m 248.9,245 c -1.9,0.8 -3.9,1.2 -5.9,1.2 -4.1,0 -5.4,-1.4 -5.4,-6 v -15.4 h 10.1 v -10.9 h -10.1 v -10.7 l -11.9,1.8 v 8.9 h -6.5 v 10.9 h 6.5 v 18.6 c -0.8,7 4.3,13.3 11.3,14 0.9,0.1 1.7,0.1 2.6,0 3.6,0.2 7.2,-0.5 10.5,-1.9 z"
   id="path808"
   style="fill:#00b0d2;stroke-width:1.45885" />
	</g>
	<g
   id="g820"
   style="stroke-width:1.45885">
		<path
   class="st0"
   d="m 213.3,306.3 -9.4,-2.2 c -3,-0.6 -4,-1.4 -4,-2.9 0,-2.2 1.9,-3.1 6.4,-3.1 5.2,0.1 10.3,1.2 15.1,3.4 l 1,-10.4 c -5.1,-1.7 -10.4,-2.6 -15.7,-2.6 -11.2,0 -17.9,4.9 -17.9,13.1 0,6.9 3.1,10.6 10.3,12.5 l 9.4,2.4 c 3.7,1 4.8,1.8 4.8,3.6 -0.1,2.4 -1.8,3.2 -6.7,3.2 -5.5,0.2 -11,-0.9 -16.1,-3 l -1.1,10.7 c 5.6,1.6 11.4,2.3 17.2,2 11.1,0 17.8,-4.8 17.8,-13.7 0.4,-6.4 -4.5,-12.3 -11.1,-13 z"
   id="path812"
   style="fill:#00b0d2;stroke-width:1.45885" />
		<path
   class="st0"
   d="m 50.9,288.2 c -9,0 -13.5,4.6 -14.5,13.9 L 35.5,302 36.7,289.6 H 25.6 v 42.5 h 12 v -24.4 c 0,-6.1 2.9,-8.9 9.6,-8.9 4.7,0 7.2,2.7 7.2,7.9 v 25.4 h 12 V 305.3 C 66.3,294.4 60.7,288.2 50.9,288.2 Z"
   id="path814"
   style="fill:#00b0d2;stroke-width:1.45885" />
		<path
   class="st0"
   d="m 114.7,310.1 c 0,-12.9 -8,-21.5 -19.9,-21.5 -12.3,0 -20.9,9.2 -20.9,22.4 0,13.6 8,22.4 22.7,22.4 6.6,0 13.1,-2.4 18,-6.8 l -4.4,-8.9 c -3.8,3.1 -8.5,4.9 -13.4,5 -7.3,0 -10.6,-2.8 -11.4,-8.5 h 29.1 c 0.1,-1.4 0.2,-2.7 0.2,-4.1 z m -20,-11.3 c 4.5,-0.3 8.3,3.1 8.6,7.5 0,0.1 0,0.2 0,0.3 H 85.5 c 0.5,-4.6 4.5,-8.1 9.2,-7.8 z"
   id="path816"
   style="fill:#00b0d2;stroke-width:1.45885" />
		<polygon
   class="st0"
   points="184.9,289.8 173.2,289.8 165.5,316.2 156.9,289.8 145.5,289.8 136.9,316.2 129.1,289.8 116.9,289.8 130.6,332.2 142.2,332.2 151,305.1 159.9,332.2 171.4,332.2 "
   id="polygon818"
   style="fill:#00b0d2;stroke-width:1.45885" />
	</g>
</g><g
     id="g834"
     transform="matrix(0.68547089,0,0,0.68547089,48.729967,22.336513)"
     style="stroke-width:1.45885">
	<path
   class="st1"
   d="m 69.1,118.2 c 19.3,2.7 42,-14.9 60.2,-28.7 17.2,-12.9 38.3,-28.7 54.1,-28.6 9.6,-0.3 18.4,5.3 22.3,14.1 C 205.4,71.9 204,62.8 202.9,58.4 199.9,46.7 189.2,38.7 177.2,39.3 158.3,39.4 137.3,55.7 120.5,68.1 99.6,83.4 80.9,99.5 61,95.8 50.3,93.8 45.7,88.9 44.2,84.5 c 0.6,5.5 1.5,11 2.7,16.4 3.7,9.4 12.2,16.1 22.2,17.3 z"
   id="path824"
   style="fill:#0086ab;stroke-width:1.45885" />
	<path
   class="st0"
   d="m 151.2,4.3 c -36.1,-12.2 -75.9,2 -96,34.4 0,0 4.2,9.1 21.6,-5.4 27.2,-22.7 41.3,-32.9 74.4,-29 z"
   id="path826"
   style="fill:#00b0d2;stroke-width:1.45885" />
	<path
   class="st2"
   d="M 108.4,29.3 C 100.1,35.4 87.9,44.7 79.3,50.4 69.2,57.2 55,66.8 48.2,54.2 c -1.4,4.1 -2.4,8.3 -2.9,12.5 1.2,7.9 8.2,13.6 16.2,13.1 15.1,0.2 29.1,-12.9 50.6,-28.8 22.6,-16.8 38.3,-27.8 56.7,-25.6 10.8,0.9 20.7,6.5 26.9,15.4 -6.3,-11.1 -15.2,-20.5 -26,-27.4 -13.3,-8.5 -34.3,-3.8 -61.3,15.9 z"
   id="path828"
   style="fill:#00caf1;stroke-width:1.45885" />
	<path
   class="st3"
   d="m 98.6,153.9 c 36.1,12.2 75.9,-2 96,-34.4 0,0 -4.2,-9.1 -21.6,5.4 -27.2,22.6 -41.3,32.9 -74.4,29 z"
   id="path830"
   style="fill:#005e8c;stroke-width:1.45885" />
	<path
   class="st3"
   d="m 141.4,128.9 c 8.3,-6.1 20.5,-15.4 29.1,-21.1 10.2,-6.8 24.4,-16.4 31.2,-3.7 1.4,-4.1 2.4,-8.3 2.9,-12.5 C 203.4,83.7 196.4,78 188.4,78.5 173.2,78.2 159.1,91.4 137.6,107.3 115.1,124 99.3,135 80.9,132.9 70.1,132 60.2,126.4 54,117.5 c 6.3,11.1 15.2,20.5 26,27.4 13.4,8.5 34.4,3.7 61.4,-16 z"
   id="path832"
   style="fill:#005e8c;stroke-width:1.45885" />
</g></g></svg>
