<?xml version="1.0" encoding="UTF-8" standalone="no"?>
<!-- Generator: Adobe Illustrator 16.0.0, SVG Export Plug-In . SVG Version: 6.00 Build 0)  -->

<svg
   version="1.1"
   id="Layer_1"
   x="0px"
   y="0px"
   width="280px"
   height="280px"
   viewBox="0 0 280 280"
   enable-background="new 0 0 280 280"
   xml:space="preserve"
   sodipodi:docname="tv4.svg"
   inkscape:version="1.2.2 (b0a8486541, 2022-12-01)"
   xmlns:inkscape="http://www.inkscape.org/namespaces/inkscape"
   xmlns:sodipodi="http://sodipodi.sourceforge.net/DTD/sodipodi-0.dtd"
   xmlns="http://www.w3.org/2000/svg"
   xmlns:svg="http://www.w3.org/2000/svg"><defs
   id="defs216276">
	
	
	
</defs><sodipodi:namedview
   id="namedview216274"
   pagecolor="#ffffff"
   bordercolor="#666666"
   borderopacity="1.0"
   inkscape:pageshadow="2"
   inkscape:pageopacity="0.0"
   inkscape:pagecheckerboard="0"
   showgrid="false"
   inkscape:zoom="0.74285714"
   inkscape:cx="223.46154"
   inkscape:cy="193.84615"
   inkscape:window-width="1600"
   inkscape:window-height="826"
   inkscape:window-x="0"
   inkscape:window-y="0"
   inkscape:window-maximized="1"
   inkscape:current-layer="layer1"
   inkscape:showpageshadow="2"
   inkscape:deskcolor="#d1d1d1" />
<g
   inkscape:groupmode="layer"
   id="layer2"
   inkscape:label="BG" />
<g
   inkscape:groupmode="layer"
   id="layer1"
   inkscape:label="Logo"><polygon
     class="cls-1"
     points="137.46,16.06 105.34,16.06 17.34,130.08 17.34,161.87 182.43,161.87 182.43,178.25 0,178.25 0,125.9 97.32,0 154.81,0 154.81,125.9 137.46,125.9 "
     id="polygon668"
     style="fill:#ffc700"
     transform="translate(40.007801,27.665132)" /><polygon
     class="cls-2"
     points="182.43,134.57 182.43,150.95 28.91,150.95 28.91,132.64 110.16,27.62 126.22,27.62 126.22,125.9 108.88,125.9 108.88,55.88 47.85,134.57 "
     id="polygon670"
     style="fill:#ed1c25"
     transform="translate(40.007801,27.665132)" /><rect
     class="cls-3"
     x="177.46782"
     y="214.58511"
     width="17.34"
     height="34.040001"
     id="rect672"
     style="fill:#ffa200" /><rect
     class="cls-2"
     x="148.8878"
     y="214.58511"
     width="17.34"
     height="34.040001"
     id="rect674"
     style="fill:#ed1c25" /></g></svg>
